<svg width="50" height="50" viewBox="0 0 50 50" fill="none" xmlns="http://www.w3.org/2000/svg">
<g id="link_off_24dp_5F6368 1" clip-path="url(#clip0_1553_24627)">
<g id="Group">
<path id="Vector" d="M29.1667 18.75H35.1458C38.1875 18.75 40.9792 20.7917 41.5625 23.7917C42.2083 27.2083 40.0208 30.2708 36.9375 31.0417L40.125 34.2292C43.8125 32.3333 46.2708 28.3542 45.75 23.7917C45.1667 18.4583 40.3542 14.5833 34.9792 14.5833H29.1667C28.0208 14.5833 27.0833 15.5208 27.0833 16.6667C27.0833 17.8125 28.0208 18.75 29.1667 18.75ZM7.3125 7.3125C6.5 6.5 5.1875 6.5 4.375 7.3125C3.5625 8.125 3.5625 9.4375 4.375 10.25L9.875 15.75C6.1875 17.6458 3.72917 21.625 4.25 26.1875C4.83333 31.5417 9.64583 35.4167 15.0208 35.4167H20.8333C21.9792 35.4167 22.9167 34.4792 22.9167 33.3333C22.9167 32.1875 21.9792 31.25 20.8333 31.25H14.8542C11.8125 31.25 9.02083 29.2083 8.4375 26.2083C7.79167 22.7917 10 19.7292 13.0625 18.9583L17.4792 23.375C17 23.7708 16.6667 24.3333 16.6667 25C16.6667 26.1458 17.6042 27.0833 18.75 27.0833H21.1875L39.7292 45.625C40.5417 46.4375 41.8542 46.4375 42.6667 45.625C43.4792 44.8125 43.4792 43.5 42.6667 42.6875L7.3125 7.3125ZM29.1667 22.9167L32.7292 26.4792C33.1042 26.1042 33.3333 25.5833 33.3333 25C33.3333 23.8542 32.3958 22.9167 31.25 22.9167H29.1667Z" fill="#9F9F9F"/>
</g>
</g>
<defs>
<clipPath id="clip0_1553_24627">
<rect width="50" height="50" fill="white"/>
</clipPath>
</defs>
</svg>
