<svg width="200" height="43" viewBox="0 0 200 43" fill="none" xmlns="http://www.w3.org/2000/svg">
<g id="pixlip_logo_classic_(1) 1" clip-path="url(#clip0_931_688)">
<g id="Vordergrund">
<path id="Vector" fill-rule="evenodd" clip-rule="evenodd" d="M96.6707 0.537598V28.7399C96.6707 36.3417 101.409 42.4736 111.386 42.4736H123.449L123.46 34.8937H112.13C107.657 34.8937 105.593 32.4146 105.593 28.4986V0.537598H96.6707Z" fill="black"/>
<path id="Vector_2" d="M49.7946 0.537598H40.8611V42.4736H49.7946V0.537598Z" fill="black"/>
<path id="Vector_3" fill-rule="evenodd" clip-rule="evenodd" d="M19.2876 0.537598H0.654785V42.4736H9.58831V29.2335H19.2876C29.3419 29.2335 35.2791 22.6958 35.2791 14.9404C35.2902 7.20699 29.3419 0.537598 19.2876 0.537598ZM18.8215 21.906H9.58831V7.87612H18.8215C23.3382 7.87612 26.2901 10.8817 26.2901 14.9294C26.2679 18.9881 23.3271 21.906 18.8215 21.906Z" fill="black"/>
<path id="Vector_4" fill-rule="evenodd" clip-rule="evenodd" d="M78.3266 21.5111L92.1985 0.537598H82.2662L73.2439 14.721L64.2438 0.537598H54.2449L68.139 21.5111L54.2449 42.4736H64.1883L73.2439 28.345L82.2107 42.4736H92.1985L78.3266 21.5111Z" fill="black"/>
<path id="Vector_5" d="M136.855 0.537598H127.921V42.4736H136.855V0.537598Z" fill="black"/>
<path id="Vector_6" fill-rule="evenodd" clip-rule="evenodd" d="M164.421 0.537598H145.789V42.4736H154.722V29.2335H164.421C174.476 29.2335 180.413 22.6958 180.413 14.9404C180.413 7.20699 174.476 0.537598 164.421 0.537598ZM163.933 21.906H154.7V7.87612H163.933C168.45 7.87612 171.402 10.8817 171.402 14.9294C171.402 18.9881 168.45 21.906 163.933 21.906Z" fill="black"/>
<path id="Vector_7" d="M193.686 5.95651C193.686 5.67131 193.608 5.46289 193.452 5.29835C193.297 5.14477 193.009 5.07896 192.598 5.07896H191.766V6.83406H192.432C192.887 6.83406 193.219 6.73534 193.408 6.5708C193.597 6.42819 193.686 6.20881 193.686 5.95651ZM193.608 10.1578L193.009 8.26008C192.975 8.10651 192.898 7.97488 192.776 7.89809C192.653 7.82131 192.52 7.77743 192.398 7.77743H191.755V10.1578H190.589V4.12462H192.698C193.364 4.12462 193.896 4.26722 194.285 4.53049C194.673 4.81569 194.873 5.26544 194.873 5.87972C194.873 6.11008 194.829 6.3185 194.751 6.48304C194.651 6.65855 194.551 6.79018 194.418 6.89988C194.274 7.02054 194.152 7.11926 194.007 7.18508C193.863 7.26187 193.752 7.30574 193.663 7.33865C193.708 7.37156 193.785 7.43738 193.885 7.51416C193.996 7.59095 194.074 7.71161 194.152 7.88712L194.906 10.1797H193.619V10.1578H193.608ZM198.025 7.1083C198.025 6.32947 197.88 5.61646 197.603 4.95829C197.314 4.30013 196.926 3.74069 196.438 3.27998C195.949 2.81926 195.361 2.43534 194.707 2.17207C194.052 1.9088 193.342 1.7662 192.576 1.7662C191.81 1.7662 191.111 1.9088 190.445 2.17207C189.779 2.43534 189.213 2.80829 188.725 3.27998C188.237 3.75166 187.848 4.3111 187.571 4.95829C187.282 5.61646 187.16 6.32947 187.16 7.1083C187.16 7.89809 187.304 8.63304 187.582 9.2912C187.87 9.94937 188.259 10.5198 188.736 10.9915C189.224 11.4631 189.79 11.8361 190.456 12.0994C191.122 12.3626 191.821 12.5052 192.587 12.5052C193.353 12.5052 194.063 12.3626 194.729 12.0994C195.395 11.8361 195.972 11.4631 196.46 10.9915C196.948 10.5198 197.326 9.96034 197.614 9.2912C197.88 8.63304 198.025 7.90906 198.025 7.1083ZM199.345 7.15217C199.345 8.11748 199.168 9.01697 198.813 9.81773C198.446 10.6295 197.98 11.3096 197.359 11.9019C196.748 12.4833 196.038 12.933 195.206 13.2402C194.385 13.5473 193.486 13.7119 192.542 13.7119C191.61 13.7119 190.734 13.5583 189.901 13.2292C189.08 12.9001 188.359 12.4504 187.748 11.88C187.138 11.2986 186.661 10.6075 186.317 9.7958C185.973 8.98406 185.795 8.08457 185.795 7.11926C185.795 6.15396 185.973 5.25447 186.317 4.4537C186.661 3.64197 187.149 2.96187 187.748 2.38049C188.348 1.79911 189.069 1.3713 189.901 1.04222C190.722 0.713142 191.599 0.55957 192.542 0.55957C193.486 0.55957 194.385 0.713142 195.206 1.04222C196.027 1.3713 196.748 1.82105 197.359 2.39146C197.969 2.97284 198.446 3.66391 198.813 4.47564C199.168 5.27641 199.345 6.1759 199.345 7.15217Z" fill="black"/>
</g>
</g>
<defs>
<clipPath id="clip0_931_688">
<rect width="200" height="43" fill="white"/>
</clipPath>
</defs>
</svg>
